<?xml version="1.0" encoding="UTF-8"?>
<svg id="_圖層_2" data-name="圖層 2" xmlns="http://www.w3.org/2000/svg" viewBox="0 0 58.59 65.84">
  <defs>
    <style>
      .cls-1 {
        fill: #fff;
      }
    </style>
  </defs>
  <g id="_圖層_1-2" data-name="圖層 1">
    <path class="cls-1" d="M57.15,1.11c-.02-.13-.04-.27-.07-.4-.09-.39-.33-.63-.68-.7-.35-.07-.6,.11-.83,.4-.71,.91-1.37,1.88-2.18,2.68-1.8,1.79-4.01,2.76-6.35,3.4-2.76,.76-5.59,.99-8.41,1.27-3.32,.33-6.65,.62-9.96,1.09-3.44,.48-6.76,1.5-9.91,3.12-3.28,1.69-6.16,4.01-8.76,6.75-3.36,3.54-5.73,7.74-6.93,12.68-1.22,5.04-1.14,10.13-.39,15.23,.06,.42,.27,.72,.67,.82,.37,.09,.7-.09,.93-.49,.17-.31,.33-.63,.5-.94,2.95-5.21,6.87-9.36,11.63-12.56,5.72-3.86,11.97-6.05,18.6-7.02,.1-.02,.21-.01,.31-.02,.01,.04,.02,.09,.04,.13-.25,.09-.51,.17-.76,.27-4.14,1.81-8.14,3.95-11.9,6.57-5.79,4.03-10.68,9.11-14.75,15.13-3.01,4.45-5.55,9.2-7.81,14.14-.23,.51-.14,.93,.19,1.32,1.34,.62,2.68,1.24,4.01,1.85,.53-.04,.81-.39,1.01-.9,1.38-3.43,3.09-6.65,5.08-9.7,.22-.34,.37-.41,.73-.22,3.42,1.85,6.99,3.26,10.76,4.03,6.08,1.25,11.98,.62,17.63-2.2,2.8-1.4,5.44-3.1,7.69-5.46,3.55-3.72,6.36-8.01,8.26-12.98,1.87-4.87,2.73-9.97,3-15.21,.25-4.86,0-9.69-.49-14.51-.25-2.53-.57-5.05-.86-7.57Z"/>
  </g>
</svg>